<?xml version="1.0" encoding="utf-8"?>
<!-- Generator: Adobe Illustrator 28.1.0, SVG Export Plug-In . SVG Version: 6.00 Build 0)  -->
<svg version="1.1" xmlns="http://www.w3.org/2000/svg" xmlns:xlink="http://www.w3.org/1999/xlink" x="0px" y="0px"
	 viewBox="0 0 500 500" style="enable-background:new 0 0 500 500;" xml:space="preserve">
<style type="text/css">
	.st0{fill:#E75025;stroke:#E65125;stroke-width:14;stroke-miterlimit:10;}
	.st1{fill:#E75025;stroke:#FFFFFF;stroke-width:14;stroke-miterlimit:10;}
</style>
<g id="Layer_2">
	<circle class="st0" cx="250" cy="250" r="242.09"/>
</g>
<g id="Layer_1">
	<g>
		<path class="st1" d="M352.52,99.34l-24.62,153.6c-0.24,1.5,1.32,2.44,2.21,1.34l31.29-38.54c0.97-1.19,2.63,0.02,2.16,1.58
			c-51.96,173.2-119.68,182.87-142.66,183.35c-0.06,0-59.63-0.76-75.81-60.66c-14.84-54.94-11.3-172.67,14.69-240.67"/>
		<circle class="st1" cx="193.58" cy="168.33" r="1.82"/>
		<circle class="st1" cx="248.71" cy="167.03" r="1.29"/>
		<path class="st1" d="M214.6,227.11l64.98-22.55c6.63,47.74-5.97,48.74-16.58,45.26c-10.61-3.48-16.03-22.02-16.03-22.02
			c-3.51-10.7-3.51-10.7-3.51-10.7l-44.48,15.42"/>
	</g>
</g>
</svg>
